<?xml version="1.0" encoding="UTF-8"?>
<!DOCTYPE svg PUBLIC "-//W3C//DTD SVG 1.1//EN" "http://www.w3.org/Graphics/SVG/1.1/DTD/svg11.dtd">
<svg xmlns="http://www.w3.org/2000/svg" version="1.1" width="200px" height="65px" style="shape-rendering:geometricPrecision; text-rendering:geometricPrecision; image-rendering:optimizeQuality; fill-rule:evenodd; clip-rule:evenodd" xmlns:xlink="http://www.w3.org/1999/xlink">
<g><path style="opacity:1" fill="#050505" d="M -0.5,-0.5 C 66.1667,-0.5 132.833,-0.5 199.5,-0.5C 199.5,21.1667 199.5,42.8333 199.5,64.5C 132.833,64.5 66.1667,64.5 -0.5,64.5C -0.5,42.8333 -0.5,21.1667 -0.5,-0.5 Z"/></g>
<g><path style="opacity:1" fill="#e2e2e2" d="M 42.5,15.5 C 44.1992,15.3398 45.8659,15.5065 47.5,16C 48.3041,17.7713 49.4708,19.2713 51,20.5C 52.484,16.5123 55.3174,14.8456 59.5,15.5C 59.5,21.5 59.5,27.5 59.5,33.5C 57.8333,33.5 56.1667,33.5 54.5,33.5C 54.665,30.1501 54.4983,26.8168 54,23.5C 52,27.5 50,27.5 48,23.5C 47.5017,26.8168 47.335,30.1501 47.5,33.5C 45.8333,33.5 44.1667,33.5 42.5,33.5C 42.5,27.5 42.5,21.5 42.5,15.5 Z"/></g>
<g><path style="opacity:1" fill="#ececec" d="M 66.5,15.5 C 68.604,15.2011 70.604,15.5344 72.5,16.5C 74.7813,22.008 76.4479,27.6747 77.5,33.5C 74.4395,33.4129 71.7728,32.4129 69.5,30.5C 66.9868,31.8037 64.3202,32.8037 61.5,33.5C 62.3551,27.2688 64.0218,21.2688 66.5,15.5 Z"/></g>
<g><path style="opacity:1" fill="#dfdfdf" d="M 84.5,15.5 C 86.1667,15.5 87.8333,15.5 89.5,15.5C 89.5,21.5 89.5,27.5 89.5,33.5C 87.8333,33.5 86.1667,33.5 84.5,33.5C 84.5,27.5 84.5,21.5 84.5,15.5 Z"/></g>
<g><path style="opacity:1" fill="#f6f6f6" d="M 92.5,15.5 C 93.8734,15.3433 95.2068,15.51 96.5,16C 98.4579,18.7482 100.291,21.5815 102,24.5C 102.498,21.5184 102.665,18.5184 102.5,15.5C 103.833,15.5 105.167,15.5 106.5,15.5C 106.5,21.5 106.5,27.5 106.5,33.5C 105.127,33.6567 103.793,33.49 102.5,33C 100.542,30.2518 98.7088,27.4185 97,24.5C 96.502,27.4816 96.3354,30.4816 96.5,33.5C 95.1667,33.5 93.8333,33.5 92.5,33.5C 92.5,27.5 92.5,21.5 92.5,15.5 Z"/></g>
<g><path style="opacity:1" fill="#e8e8e8" d="M 112.5,14.5 C 118.071,13.9317 121.405,16.265 122.5,21.5C 119.644,20.1721 116.644,19.1721 113.5,18.5C 113.33,19.8221 113.663,20.9887 114.5,22C 122.807,23.0072 124.474,26.6739 119.5,33C 116.833,33.6667 114.167,33.6667 111.5,33C 109.393,31.7365 108.393,29.9032 108.5,27.5C 111.14,27.5533 113.64,28.22 116,29.5C 116.833,29.1667 117.667,28.8333 118.5,28.5C 115.036,27.1461 111.87,25.1461 109,22.5C 108.333,21.1667 108.333,19.8333 109,18.5C 110.376,17.2949 111.542,15.9616 112.5,14.5 Z"/></g>
<g><path style="opacity:1" fill="#f2f2f2" d="M 134.5,15.5 C 137.187,15.3359 139.854,15.5026 142.5,16C 144.607,17.2635 145.607,19.0968 145.5,21.5C 142.728,20.5889 140.061,19.7556 137.5,19C 135.496,21.8408 134.996,25.0074 136,28.5C 138.2,29.9901 140.034,29.6568 141.5,27.5C 140.675,26.6143 139.675,26.281 138.5,26.5C 138.5,25.5 138.5,24.5 138.5,23.5C 140.833,23.5 143.167,23.5 145.5,23.5C 146.336,31.8285 142.67,34.9952 134.5,33C 132.083,30.5206 131.083,27.5206 131.5,24C 131.051,20.561 132.051,17.7276 134.5,15.5 Z"/></g>
<g><path style="opacity:1" fill="#f1f1f1" d="M 151.5,15.5 C 151.5,17.8333 151.5,20.1667 151.5,22.5C 153.5,22.5 155.5,22.5 157.5,22.5C 157.5,20.1667 157.5,17.8333 157.5,15.5C 158.833,15.5 160.167,15.5 161.5,15.5C 161.5,21.5 161.5,27.5 161.5,33.5C 160.167,33.5 158.833,33.5 157.5,33.5C 157.5,30.8333 157.5,28.1667 157.5,25.5C 155.585,25.2155 153.919,25.5489 152.5,26.5C 152.5,28.8333 152.5,31.1667 152.5,33.5C 150.833,33.5 149.167,33.5 147.5,33.5C 147.5,27.5 147.5,21.5 147.5,15.5C 148.833,15.5 150.167,15.5 151.5,15.5 Z"/></g>
<g><path style="opacity:1" fill="#fafafa" d="M 168.5,33.5 C 168.5,28.5 168.5,23.5 168.5,18.5C 166.833,18.5 165.167,18.5 163.5,18.5C 163.5,17.5 163.5,16.5 163.5,15.5C 168.167,15.5 172.833,15.5 177.5,15.5C 177.5,16.5 177.5,17.5 177.5,18.5C 175.833,18.5 174.167,18.5 172.5,18.5C 172.5,23.5 172.5,28.5 172.5,33.5C 171.167,33.5 169.833,33.5 168.5,33.5 Z"/></g>
<g><path style="opacity:1" fill="#e9e9e9" d="M 183.5,14.5 C 189.092,13.7717 192.092,16.105 192.5,21.5C 189.861,21.4292 187.694,20.4292 186,18.5C 183.659,19.0069 183.159,20.1735 184.5,22C 190.835,22.3202 193.335,25.4868 192,31.5C 188.744,33.4285 185.244,33.9285 181.5,33C 180.128,31.7581 179.128,30.2581 178.5,28.5C 181.833,28.5 185.167,28.5 188.5,28.5C 185.817,26.7357 182.984,25.069 180,23.5C 178.665,19.3919 179.832,16.3919 183.5,14.5 Z"/></g>
<g><path style="opacity:1" fill="#a4a4a4" d="M 128.5,33.5 C 128.5,27.5 128.5,21.5 128.5,15.5C 127.5,15.5 126.5,15.5 125.5,15.5C 125.5,21.5 125.5,27.5 125.5,33.5C 124.51,27.3554 124.177,21.0221 124.5,14.5C 126.167,14.5 127.833,14.5 129.5,14.5C 129.823,21.0221 129.49,27.3554 128.5,33.5 Z"/></g>
<g><path style="opacity:1" fill="#fcfcfc" d="M 128.5,33.5 C 127.5,33.5 126.5,33.5 125.5,33.5C 125.5,27.5 125.5,21.5 125.5,15.5C 126.5,15.5 127.5,15.5 128.5,15.5C 128.5,21.5 128.5,27.5 128.5,33.5 Z"/></g>
<g><path style="opacity:1" fill="#32a4e1" d="M 18.5,14.5 C 25.004,14.1377 26.6707,16.6377 23.5,22C 19.5584,23.4177 17.2251,22.0843 16.5,18C 16.9783,16.6974 17.645,15.5307 18.5,14.5 Z"/></g>
<g><path style="opacity:1" fill="#666666" d="M 163.5,18.5 C 165.167,18.5 166.833,18.5 168.5,18.5C 168.5,23.5 168.5,28.5 168.5,33.5C 167.514,29.03 167.181,24.3633 167.5,19.5C 165.901,19.7678 164.568,19.4345 163.5,18.5 Z"/></g>
<g><path style="opacity:1" fill="#505050" d="M 151.5,15.5 C 152.461,17.2646 152.795,19.2646 152.5,21.5C 153.833,21.5 155.167,21.5 156.5,21.5C 156.205,19.2646 156.539,17.2646 157.5,15.5C 157.5,17.8333 157.5,20.1667 157.5,22.5C 155.5,22.5 153.5,22.5 151.5,22.5C 151.5,20.1667 151.5,17.8333 151.5,15.5 Z"/></g>
<g><path style="opacity:1" fill="#242424" d="M 68.5,21.5 C 70.539,22.911 71.539,24.911 71.5,27.5C 70.1667,27.5 68.8333,27.5 67.5,27.5C 67.5172,25.4352 67.8505,23.4352 68.5,21.5 Z"/></g>
<g><path style="opacity:1" fill="#646464" d="M 152.5,26.5 C 153.919,25.5489 155.585,25.2155 157.5,25.5C 157.5,28.1667 157.5,30.8333 157.5,33.5C 156.532,31.3926 156.198,29.0593 156.5,26.5C 155.167,26.5 153.833,26.5 152.5,26.5 Z"/></g>
<g><path style="opacity:1" fill="#b9f26d" d="M 6.5,21.5 C 10.7102,20.7119 13.3768,22.3786 14.5,26.5C 16.6737,28.4403 19.007,28.7736 21.5,27.5C 24.9746,28.1432 26.1412,30.1432 25,33.5C 23.1406,34.6455 22.3073,36.3122 22.5,38.5C 23.0369,41.0353 24.0369,43.3686 25.5,45.5C 24.2335,49.3946 21.7335,50.3946 18,48.5C 18.3333,44.1667 18.6667,39.8333 19,35.5C 17.3829,34.1487 16.2162,32.482 15.5,30.5C 12.3238,29.7214 9.15716,28.7214 6,27.5C 5.32239,25.4024 5.48905,23.4024 6.5,21.5 Z"/></g>
<g><path style="opacity:1" fill="#34abed" d="M 31.5,20.5 C 34.7787,20.3051 36.7787,21.8051 37.5,25C 35.8128,26.8526 34.8128,29.0193 34.5,31.5C 34.3073,33.6878 35.1406,35.3545 37,36.5C 37.6643,41.4964 35.4977,43.3297 30.5,42C 29.1955,41.196 28.5288,40.0293 28.5,38.5C 29.9631,36.3686 30.9631,34.0353 31.5,31.5C 31.1872,29.0193 30.1872,26.8526 28.5,25C 28.9567,23.0598 29.9567,21.5598 31.5,20.5 Z"/></g>
<g><path style="opacity:1" fill="#36b0f3" d="M 7.5,34.5 C 13.4877,34.664 14.821,37.164 11.5,42C 5.20156,42.4954 3.86823,39.9954 7.5,34.5 Z"/></g>
<g><path style="opacity:1" fill="#dddddd" d="M 43.5,39.5 C 45.9484,39.0101 47.615,39.8434 48.5,42C 47.2335,43.6665 45.7335,45.1665 44,46.5C 43.5034,44.1902 43.3367,41.8568 43.5,39.5 Z"/></g>
<g><path style="opacity:1" fill="#c6c6c6" d="M 69.5,46.5 C 69.5,44.8333 69.5,43.1667 69.5,41.5C 71.5841,42.2483 73.5841,42.2483 75.5,41.5C 76.4776,41.9767 77.3109,42.6433 78,43.5C 82.715,38.2923 84.5483,39.6256 83.5,47.5C 80.7615,48.0352 78.9282,47.0352 78,44.5C 77.5172,45.448 77.3505,46.448 77.5,47.5C 74.7277,47.4048 72.7277,46.0715 71.5,43.5C 71.0037,45.3979 70.337,46.3979 69.5,46.5 Z"/></g>
<g><path style="opacity:1" fill="#ababab" d="M 116.5,40.5 C 116.5,41.1667 116.5,41.8333 116.5,42.5C 114.876,40.8632 113.876,41.1966 113.5,43.5C 113.876,45.8034 114.876,46.1368 116.5,44.5C 116.5,44.8333 116.5,45.1667 116.5,45.5C 116.189,46.4778 115.522,47.1445 114.5,47.5C 111.617,47.1277 108.617,47.1277 105.5,47.5C 105.114,39.6019 104.114,39.6019 102.5,47.5C 101.881,44.9682 100.881,42.6349 99.5,40.5C 105.487,39.4967 111.154,39.4967 116.5,40.5 Z"/></g>
<g><path style="opacity:1" fill="#e9e9e9" d="M 110.5,41.5 C 107.203,41.3287 106.869,41.9954 109.5,43.5C 106.869,45.0046 107.203,45.6713 110.5,45.5C 109.432,46.4345 108.099,46.7678 106.5,46.5C 106.5,44.5 106.5,42.5 106.5,40.5C 108.099,40.2322 109.432,40.5655 110.5,41.5 Z"/></g>
<g><path style="opacity:1" fill="#e9e9e9" d="M 181.5,39.5 C 182.705,41.1376 184.038,41.4709 185.5,40.5C 186.833,42.5 186.833,44.5 185.5,46.5C 185.649,45.448 185.483,44.448 185,43.5C 184.333,44.8333 183.667,44.8333 183,43.5C 182.517,44.448 182.351,45.448 182.5,46.5C 181.532,44.3926 181.198,42.0593 181.5,39.5 Z"/></g>
<g><path style="opacity:1" fill="#d2d2d2" d="M 86.5,39.5 C 90.0674,40.4565 91.7341,42.7898 91.5,46.5C 89.8333,46.5 88.1667,46.5 86.5,46.5C 86.5,44.1667 86.5,41.8333 86.5,39.5 Z"/></g>
<g><path style="opacity:1" fill="#0f0f0f" d="M 110.5,41.5 C 111.833,42.8333 111.833,44.1667 110.5,45.5C 107.203,45.6713 106.869,45.0046 109.5,43.5C 106.869,41.9954 107.203,41.3287 110.5,41.5 Z"/></g>
<g><path style="opacity:1" fill="#0b0b0b" d="M 116.5,42.5 C 117.833,43.1667 117.833,43.8333 116.5,44.5C 114.876,46.1368 113.876,45.8034 113.5,43.5C 113.876,41.1966 114.876,40.8632 116.5,42.5 Z"/></g>
<g><path style="opacity:1" fill="#7c7c7c" d="M 129.5,39.5 C 130.5,39.5 131.5,39.5 132.5,39.5C 132.664,42.1873 132.497,44.854 132,47.5C 130.791,47.3474 129.625,47.0141 128.5,46.5C 129.468,44.3926 129.802,42.0593 129.5,39.5 Z"/></g>
<g><path style="opacity:1" fill="#b1b1b1" d="M 181.5,39.5 C 181.198,42.0593 181.532,44.3926 182.5,46.5C 180.052,47.4731 177.385,47.8064 174.5,47.5C 174.114,39.6019 173.114,39.6019 171.5,47.5C 170.833,45.5 170.167,43.5 169.5,41.5C 168.5,42 167.5,42.5 166.5,43C 168.167,46.3333 167.167,47.6667 163.5,47C 162.185,45.6054 162.519,44.6054 164.5,44C 162.842,43.2747 162.342,42.108 163,40.5C 168.954,39.8027 175.121,39.4694 181.5,39.5 Z"/></g>
<g><path style="opacity:1" fill="#101010" d="M 176.5,42.5 C 177.568,41.5655 178.901,41.2322 180.5,41.5C 180.5,42.8333 180.5,44.1667 180.5,45.5C 179.127,45.6567 177.793,45.49 176.5,45C 179.113,43.9288 179.113,43.0955 176.5,42.5 Z"/></g>
<g><path style="opacity:1" fill="#cecece" d="M 129.5,39.5 C 129.802,42.0593 129.468,44.3926 128.5,46.5C 127.778,46.0825 127.278,45.4158 127,44.5C 125.631,48.3325 124.797,47.9992 124.5,43.5C 124.611,38.6213 125.778,38.288 128,42.5C 128.232,41.2625 128.732,40.2625 129.5,39.5 Z"/></g>
<g><path style="opacity:1" fill="#dbdbdb" d="M 156.5,39.5 C 158.068,41.9312 159.568,41.9312 161,39.5C 159.388,48.5107 157.888,48.5107 156.5,39.5 Z"/></g>
<g><path style="opacity:1" fill="#bcbcbc" d="M 50.5,41.5 C 54.35,41.7007 55.35,43.5341 53.5,47C 49.5369,47.1177 48.5369,45.2843 50.5,41.5 Z"/></g>
<g><path style="opacity:1" fill="#d6d6d6" d="M 67.5,42.5 C 68.231,45.0314 67.731,45.0314 66,42.5C 65.516,44.1933 66.016,45.5267 67.5,46.5C 65.3161,47.9829 63.9827,47.3163 63.5,44.5C 63.9827,41.6837 65.3161,41.0171 67.5,42.5 Z"/></g>
<g><path style="opacity:1" fill="#d2d2d2" d="M 118.5,39.5 C 119.158,40.3984 119.824,41.3984 120.5,42.5C 122.31,38.5172 123.31,38.8506 123.5,43.5C 123.31,48.1494 122.31,48.4828 120.5,44.5C 119.702,44.9569 119.369,45.6236 119.5,46.5C 118.532,44.3926 118.198,42.0593 118.5,39.5 Z"/></g>
<g><path style="opacity:1" fill="#737373" d="M 185.5,40.5 C 186.348,39.375 187.348,39.375 188.5,40.5C 188.561,42.5922 189.561,44.0922 191.5,45C 190.231,44.8915 189.231,45.0582 188.5,45.5C 187.849,46.0906 187.182,46.7573 186.5,47.5C 185.893,47.3764 185.56,47.0431 185.5,46.5C 186.833,44.5 186.833,42.5 185.5,40.5 Z"/></g>
<g><path style="opacity:1" fill="#6b6b6b" d="M 69.5,41.5 C 69.5,43.1667 69.5,44.8333 69.5,46.5C 68.8333,46.5 68.1667,46.5 67.5,46.5C 66.016,45.5267 65.516,44.1933 66,42.5C 67.731,45.0314 68.231,45.0314 67.5,42.5C 68.1667,42.1667 68.8333,41.8333 69.5,41.5 Z"/></g>
<g><path style="opacity:1" fill="#6f6f6f" d="M 118.5,39.5 C 118.198,42.0593 118.532,44.3926 119.5,46.5C 119.44,47.0431 119.107,47.3764 118.5,47.5C 117.818,46.7573 117.151,46.0906 116.5,45.5C 116.5,45.1667 116.5,44.8333 116.5,44.5C 117.833,43.8333 117.833,43.1667 116.5,42.5C 116.5,41.8333 116.5,41.1667 116.5,40.5C 117.167,40.1667 117.833,39.8333 118.5,39.5 Z"/></g>
<g><path style="opacity:1" fill="#c0c0c0" d="M 135.5,39.5 C 136.5,39.5 137.5,39.5 138.5,39.5C 139.833,47.5 141.167,47.5 142.5,39.5C 143.675,39.281 144.675,39.6143 145.5,40.5C 146.704,42.9028 147.038,45.2362 146.5,47.5C 142.546,47.7901 138.546,47.4567 134.5,46.5C 134.448,44.0971 134.781,41.7638 135.5,39.5 Z"/></g>
<g><path style="opacity:1" fill="#c4c4c4" d="M 151.5,39.5 C 153.346,39.2222 154.68,39.8888 155.5,41.5C 155.12,43.0207 154.954,44.6874 155,46.5C 153.12,47.9295 151.62,47.5962 150.5,45.5C 151.262,45.0894 152.262,44.9227 153.5,45C 150.767,43.7719 150.1,41.9386 151.5,39.5 Z"/></g>
<g><path style="opacity:1" fill="#c4c4c4" d="M 188.5,45.5 C 189.231,45.0582 190.231,44.8915 191.5,45C 189.561,44.0922 188.561,42.5922 188.5,40.5C 190.551,38.9624 192.218,39.2957 193.5,41.5C 193.431,43.2781 193.097,45.1114 192.5,47C 190.648,47.7726 189.314,47.2726 188.5,45.5 Z"/></g>
<g><path style="opacity:1" fill="#cdcdcd" d="M 55.5,41.5 C 57.4734,41.5266 59.4734,41.5266 61.5,41.5C 62.9039,43.5471 62.5706,45.2138 60.5,46.5C 58.9974,45.9478 57.3307,45.9478 55.5,46.5C 55.5,44.8333 55.5,43.1667 55.5,41.5 Z"/></g>
<g><path style="opacity:1" fill="#e4e4e4" d="M 92.5,41.5 C 93.6879,42.6843 94.8545,42.6843 96,41.5C 96.8472,44.4491 96.0139,46.7824 93.5,48.5C 93.5282,46.4146 93.1949,44.0813 92.5,41.5 Z"/></g>
</svg>
