<?xml version="1.0" standalone="no"?>
<!DOCTYPE svg PUBLIC "-//W3C//DTD SVG 20010904//EN"
 "http://www.w3.org/TR/2001/REC-SVG-20010904/DTD/svg10.dtd">
<svg version="1.0" xmlns="http://www.w3.org/2000/svg"
 width="2438.000000pt" height="398.000000pt" viewBox="0 0 2438.000000 398.000000"
 preserveAspectRatio="xMidYMid meet">

<g transform="translate(0.000000,398.000000) scale(0.100000,-0.100000)"
fill="#000000" stroke="none">
<path d="M1120 3959 c-233 -20 -480 -116 -666 -260 -73 -56 -202 -193 -253
-267 -63 -94 -128 -235 -158 -347 l-28 -100 -3 -959 c-2 -838 -1 -970 13
-1045 77 -421 379 -760 803 -901 162 -54 218 -61 495 -67 l258 -6 -3 138 -3
137 -145 -1 c-291 -3 -459 26 -625 108 -237 118 -408 320 -477 566 l-23 80 0
940 c0 859 2 947 17 1018 21 91 77 218 136 303 88 130 261 265 412 324 164 63
167 63 628 67 l422 4 0 -245 0 -246 513 0 c402 0 523 -3 563 -14 119 -32 222
-116 272 -224 l27 -57 0 -915 0 -915 -29 -63 c-38 -81 -131 -171 -213 -203
-53 -22 -76 -24 -280 -27 l-223 -3 0 -141 0 -140 228 5 c251 5 305 14 427 72
187 89 317 244 372 445 17 60 18 133 18 970 0 1012 4 957 -72 1110 -53 105
-178 230 -288 287 -152 78 -141 77 -605 83 l-415 5 -3 248 -2 247 -498 -1
c-273 -1 -540 -5 -592 -10z"/>
<path d="M2550 3833 l0 -141 253 -5 c272 -5 308 -10 457 -67 151 -59 324 -194
412 -324 59 -85 115 -212 136 -303 15 -71 17 -159 17 -1018 l0 -940 -23 -80
c-69 -246 -240 -448 -477 -566 -188 -93 -326 -111 -800 -107 l-310 3 -3 247
-2 247 -538 3 -537 3 -58 23 c-82 33 -176 123 -213 204 l-29 63 0 915 0 915
27 57 c50 108 153 192 272 224 35 9 113 14 249 14 l197 0 0 135 0 135 -223 0
c-260 0 -323 -11 -460 -82 -114 -59 -239 -183 -290 -288 -76 -154 -72 -99 -72
-1105 0 -984 -1 -958 60 -1090 66 -143 175 -254 320 -324 147 -72 162 -74 608
-78 l397 -5 0 -245 0 -244 573 4 c624 4 617 4 809 67 365 122 656 407 766 750
53 164 53 163 50 1196 l-3 959 -27 100 c-32 118 -117 294 -187 385 -104 137
-282 285 -436 363 -77 39 -216 85 -323 107 -75 16 -152 22 -344 27 l-248 6 0
-140z"/>
<path d="M11430 3686 c-282 -67 -465 -281 -511 -595 -17 -119 -7 -335 21 -431
71 -249 245 -422 478 -476 79 -18 247 -20 329 -4 32 6 96 30 143 52 117 56
193 134 254 260 24 51 47 107 51 124 l6 30 -143 46 -143 45 -22 -65 c-46 -132
-116 -205 -232 -239 -107 -31 -239 5 -321 87 -82 82 -120 216 -120 423 0 198
37 322 120 404 54 53 111 81 194 95 157 26 308 -62 357 -209 6 -18 16 -33 22
-33 7 1 73 16 147 34 158 38 154 30 90 161 -63 131 -172 225 -320 276 -81 27
-311 36 -400 15z"/>
<path d="M23560 3684 c-96 -20 -201 -76 -251 -132 -142 -160 -137 -393 12
-542 72 -72 179 -119 404 -179 105 -28 214 -63 244 -78 119 -61 121 -190 4
-279 -54 -41 -132 -58 -240 -51 -67 4 -92 10 -135 34 -66 37 -112 96 -134 171
-10 31 -21 61 -25 66 -4 4 -70 2 -148 -5 -161 -14 -151 -5 -122 -117 29 -109
67 -180 136 -248 112 -113 237 -156 455 -156 161 -1 255 17 356 67 187 92 282
304 229 510 -48 183 -167 276 -446 350 -239 63 -327 95 -364 129 -78 74 -50
164 62 206 65 24 192 29 262 10 61 -16 118 -73 141 -140 l19 -55 148 4 c81 2
149 5 151 6 2 2 -2 32 -8 66 -32 186 -169 323 -365 364 -88 18 -298 18 -385
-1z"/>
<path d="M5400 2935 l0 -745 140 0 140 0 1 573 c0 314 3 565 7 557 3 -8 69
-265 147 -570 l141 -555 145 -3 146 -3 136 538 c75 296 141 552 146 568 6 19
10 -174 10 -537 l1 -568 140 0 140 0 0 745 0 745 -225 0 -224 0 -10 -37 c-125
-474 -254 -959 -256 -961 -2 -2 -8 11 -12 30 -5 18 -65 243 -134 500 l-124
468 -227 0 -228 0 0 -745z"/>
<path d="M8443 2952 c-155 -400 -285 -735 -289 -744 -6 -17 6 -18 153 -18
l160 0 60 168 61 167 298 0 299 0 64 -167 64 -168 165 0 c127 0 163 3 159 13
-2 6 -137 342 -298 745 l-293 732 -161 0 -160 -1 -282 -727z m637 -164 c0 -4
-89 -8 -199 -8 l-199 0 94 258 c52 141 97 264 100 272 5 13 204 -496 204 -522z"/>
<path d="M13620 2935 l0 -745 150 0 150 0 0 325 0 325 295 0 295 0 0 -325 0
-325 150 0 150 0 0 745 0 745 -150 0 -150 0 0 -295 0 -295 -292 2 -293 3 -3
293 -2 292 -150 0 -150 0 0 -745z"/>
<path d="M16270 2935 l0 -745 155 0 155 0 0 745 0 745 -155 0 -155 0 0 -745z"/>
<path d="M18020 2935 l0 -745 140 0 140 0 2 479 3 479 193 -311 c106 -172 239
-386 296 -477 l103 -165 151 -3 152 -3 0 746 0 745 -140 0 -140 0 -2 -490 -3
-489 -300 489 -300 489 -147 1 -148 0 0 -745z"/>
<path d="M20680 2935 l0 -745 565 0 565 0 0 125 0 125 -415 0 -415 0 0 205 0
205 375 0 375 0 0 125 0 125 -375 0 -375 0 0 165 0 165 400 0 400 0 0 125 0
125 -550 0 -550 0 0 -745z"/>
<path d="M1950 2774 c-318 -62 -545 -260 -640 -559 -34 -107 -39 -283 -11
-400 69 -287 291 -513 576 -585 109 -28 271 -28 379 0 272 69 482 273 567 550
30 98 33 309 5 409 -42 152 -114 269 -235 383 -87 82 -212 152 -326 183 -59
16 -266 28 -315 19z m260 -270 c190 -54 335 -208 375 -399 18 -88 18 -132 0
-218 -41 -194 -183 -346 -378 -402 -75 -22 -210 -21 -284 0 -209 61 -350 224
-385 444 -31 199 87 432 268 528 133 71 265 86 404 47z"/>
<path d="M21430 1352 c-169 -44 -304 -186 -356 -372 -8 -30 -18 -107 -21 -170
-20 -384 188 -635 527 -634 211 0 355 86 435 257 56 121 61 109 -67 148 l-113
35 -17 -54 c-38 -124 -123 -191 -244 -192 -139 -1 -236 84 -270 237 -22 100
-15 314 12 387 25 64 83 129 142 157 66 32 179 33 238 2 50 -27 111 -95 123
-138 4 -16 12 -29 17 -29 5 1 55 12 112 24 81 18 102 27 102 40 0 10 -16 49
-35 88 -55 110 -150 184 -278 218 -71 19 -227 17 -307 -4z"/>
<path d="M23723 1351 c-108 -31 -178 -88 -221 -180 -61 -133 -9 -302 117 -379
61 -38 131 -63 281 -102 206 -54 240 -77 240 -160 0 -97 -71 -152 -204 -159
-95 -4 -144 9 -193 52 -36 32 -83 116 -83 150 0 9 -4 17 -10 17 -20 0 -215
-22 -218 -25 -8 -8 33 -137 60 -188 75 -139 206 -201 428 -201 226 0 373 79
431 233 17 46 20 72 17 146 -3 76 -8 98 -33 143 -52 96 -135 148 -315 197
-262 72 -310 94 -324 150 -10 40 17 89 60 110 42 21 161 32 220 21 50 -10 109
-66 123 -118 l12 -43 116 3 115 3 -6 51 c-19 142 -116 242 -273 283 -80 21
-260 19 -340 -4z"/>
<path d="M7870 776 l0 -586 105 0 105 0 0 378 c1 317 3 374 14 359 7 -9 114
-179 237 -377 l224 -360 118 0 117 0 0 585 0 585 -110 0 -110 0 -2 -387 -3
-386 -235 381 -235 382 -97 0 c-53 0 -103 3 -112 6 -14 6 -16 -50 -16 -580z"/>
<path d="M14792 1309 c19 -30 116 -183 216 -340 l182 -286 0 -246 0 -247 115
0 115 0 0 245 0 246 215 337 215 337 -77 3 c-43 1 -105 -1 -137 -5 l-60 -8
-130 -222 c-72 -123 -133 -223 -136 -223 -3 1 -63 100 -135 221 -71 122 -132
222 -135 224 -3 1 -67 6 -144 10 l-138 8 34 -54z"/>
<path d="M17110 1260 l0 -100 175 0 175 0 0 -485 0 -485 115 0 115 0 0 485 0
485 170 0 170 0 0 100 0 100 -460 0 -460 0 0 -100z"/>
<path d="M19410 775 l0 -585 115 0 115 0 0 585 0 585 -115 0 -115 0 0 -585z"/>
<path d="M5570 772 l-226 -577 120 -3 c65 -1 121 -1 123 2 3 3 26 62 52 133
l47 128 232 3 232 2 15 -32 c8 -18 32 -78 53 -133 l38 -100 127 -3 128 -3 -14
33 c-7 18 -112 279 -232 581 l-219 547 -125 0 -126 0 -225 -578z m430 91 l78
-208 -155 -3 c-86 -1 -157 -1 -159 1 -2 2 31 99 73 215 43 116 79 209 81 207
2 -2 39 -97 82 -212z"/>
<path d="M10596 1342 c-7 -11 -437 -1112 -443 -1135 -5 -16 4 -17 117 -15
l123 3 47 130 47 130 235 3 234 2 51 -132 50 -133 128 -3 c114 -2 127 -1 121
13 -3 9 -108 270 -232 581 l-226 564 -124 0 c-67 0 -125 -4 -128 -8z m207
-479 c42 -113 75 -208 73 -210 -2 -2 -73 -2 -159 -1 l-155 3 76 208 c41 114
78 207 81 207 3 0 41 -93 84 -207z"/>
<path d="M12670 770 l0 -580 410 0 410 0 0 100 0 100 -295 0 -295 0 0 480 0
480 -115 0 -115 0 0 -580z"/>
</g>
</svg>
